<?xml version="1.0" encoding="utf-8"?>
<!-- Generator: Adobe Illustrator 16.0.0, SVG Export Plug-In . SVG Version: 6.00 Build 0)  -->
<!DOCTYPE svg PUBLIC "-//W3C//DTD SVG 1.1//EN" "http://www.w3.org/Graphics/SVG/1.1/DTD/svg11.dtd">
<svg version="1.1" id="Layer_1" xmlns="http://www.w3.org/2000/svg" xmlns:xlink="http://www.w3.org/1999/xlink" x="0px" y="0px"
	 width="185px" height="188px" viewBox="0 0 185 188" enable-background="new 0 0 185 188" xml:space="preserve">
<g>
	<g>
		<path d="M53.779,26.348c0,1.703-0.822,3.344-2.875,4.259c2.59,0.788,3.538,3.532,3.538,4.92c0,4.921-3.696,6.498-8.276,6.498
			c-3.508,0-6.982,0-10.49,0v-22.08c3.476,0,6.982,0,10.49,0C50.524,19.944,53.779,21.9,53.779,26.348z M39.783,28.808h6.382
			c2.622,0,3.476-1.104,3.476-2.365c0-1.009-0.822-2.713-3.476-2.713h-6.382V28.808z M39.783,38.145h6.382
			c1.706,0,4.139-0.568,4.139-2.649c0-1.987-2.433-3.028-4.139-3.028h-6.382V38.145z"/>
		<path fill="#ED1C24" d="M60.441,42.024v-22.08h4.139v22.08H60.441z"/>
		<path fill="#ED1C24" d="M77.249,23.729h-7.014v-3.785c6.382,0,11.784,0,18.198,0v3.785H81.42v18.295h-4.171V23.729z"/>
		<path d="M111.982,38.965c-2.211,2.207-5.148,3.312-8.057,3.312c-7.455,0-11.342-5.204-11.373-11.166
			c-0.063-5.899,3.791-11.418,11.373-11.418c2.908,0,5.846,1.104,8.057,3.311l-1.168,1.01c-1.896-1.893-4.393-2.808-6.889-2.808
			c-6.445,0-9.762,4.542-9.729,9.842c0.063,5.173,3.348,9.651,9.729,9.651c2.496,0,5.023-0.945,6.92-2.807L111.982,38.965z"/>
		<path d="M138.326,31.016c-0.031,5.804-3.729,11.387-11.152,11.387s-11.152-5.614-11.152-11.449c0-5.93,3.695-11.355,11.152-11.355
			S138.359,25.055,138.326,31.016z M117.697,30.984c0.031,4.983,3.189,9.842,9.477,9.842c6.32,0,9.512-4.858,9.512-9.842
			c0-5.109-3.16-9.81-9.512-9.81C120.824,21.175,117.664,25.779,117.697,30.984z"/>
		<path d="M145.021,19.944L159.9,38.207V19.944h1.676v22.08h-0.664L146,23.793v18.231h-1.707v-22.08H145.021z"/>
		<path d="M170.734,30.448h12.732v1.608h-12.732v10h-1.707V19.944h14.883v1.703h-13.176V30.448z"/>
	</g>
	<g>
		<polygon points="14.286,19.598 14.286,23.275 14.428,23.426 19.889,23.426 19.889,29.176 20.034,29.32 23.895,29.32 23.895,19.96 
			23.533,19.598 		"/>
		<path d="M23.895,42.402v-4.585c-8.727-0.626-17.038-6.69-17.963-18.22H1.09C2.055,34.18,12.756,41.773,23.895,42.402z"/>
	</g>
</g>
<g>
	<path fill="#FFFFFF" d="M54.723,152.348c0,1.703-0.822,3.344-2.875,4.259c2.59,0.788,3.538,3.532,3.538,4.92
		c0,4.921-3.696,6.498-8.276,6.498c-3.508,0-6.982,0-10.49,0v-22.08c3.476,0,6.982,0,10.49,0
		C51.468,145.944,54.723,147.9,54.723,152.348z M40.727,154.808h6.382c2.622,0,3.476-1.104,3.476-2.365
		c0-1.009-0.822-2.713-3.476-2.713h-6.382V154.808z M40.727,164.145h6.382c1.706,0,4.139-0.568,4.139-2.649
		c0-1.987-2.433-3.028-4.139-3.028h-6.382V164.145z"/>
	<path fill="#ED1C24" d="M61.385,168.024v-22.08h4.139v22.08H61.385z"/>
	<path fill="#ED1C24" d="M78.192,149.729h-7.014v-3.785c6.382,0,11.784,0,18.198,0v3.785h-7.014v18.295h-4.171V149.729z"/>
	<path fill="#FFFFFF" d="M112.925,164.965c-2.211,2.207-5.148,3.312-8.056,3.312c-7.456,0-11.342-5.204-11.373-11.166
		c-0.063-5.899,3.79-11.418,11.373-11.418c2.907,0,5.845,1.104,8.056,3.311l-1.168,1.01c-1.896-1.893-4.392-2.807-6.888-2.807
		c-6.445,0-9.763,4.541-9.729,9.841c0.063,5.173,3.349,9.651,9.729,9.651c2.496,0,5.023-0.945,6.919-2.807L112.925,164.965z"/>
	<path fill="#FFFFFF" d="M139.269,157.017c-0.031,5.803-3.729,11.386-11.152,11.386s-11.152-5.614-11.152-11.449
		c0-5.93,3.696-11.355,11.152-11.355C135.573,145.598,139.302,151.055,139.269,157.017z M118.64,156.983
		c0.031,4.984,3.19,9.843,9.478,9.843c6.319,0,9.511-4.858,9.511-9.843c0-5.108-3.16-9.809-9.511-9.809
		S118.607,151.779,118.64,156.983z"/>
	<path fill="#FFFFFF" d="M145.964,145.944l14.88,18.263v-18.263h1.676v22.08h-0.664l-14.912-18.231v18.231h-1.707v-22.08H145.964z"
		/>
	<path fill="#FFFFFF" d="M171.677,156.448h12.732v1.608h-12.732v10h-1.706v-22.112h14.883v1.703h-13.177V156.448z"/>
	<g>
		<polygon fill="#FFFFFF" points="15.229,145.598 15.229,149.275 15.371,149.426 20.833,149.426 20.833,155.175 20.977,155.32 
			24.838,155.32 24.838,145.96 24.477,145.598 		"/>
		<path fill="#FFFFFF" d="M24.838,168.402v-4.585c-8.727-0.626-17.038-6.69-17.963-18.22H2.033
			C2.998,160.18,13.699,167.773,24.838,168.402z"/>
	</g>
</g>
<g>
	<g>
		<path d="M53.779,89.348c0,1.703-0.822,3.344-2.875,4.259c2.59,0.788,3.538,3.532,3.538,4.92c0,4.921-3.696,6.498-8.276,6.498
			c-3.508,0-6.982,0-10.49,0v-22.08c3.476,0,6.982,0,10.49,0C50.524,82.944,53.779,84.9,53.779,89.348z M39.783,91.808h6.382
			c2.622,0,3.476-1.104,3.476-2.365c0-1.009-0.822-2.713-3.476-2.713h-6.382V91.808z M39.783,101.145h6.382
			c1.706,0,4.139-0.568,4.139-2.649c0-1.987-2.433-3.028-4.139-3.028h-6.382V101.145z"/>
		<radialGradient id="SVGID_1_" cx="62.5107" cy="93.9844" r="7.9424" gradientUnits="userSpaceOnUse">
			<stop  offset="0" style="stop-color:#626262"/>
			<stop  offset="1" style="stop-color:#474747"/>
		</radialGradient>
		<path fill="url(#SVGID_1_)" d="M60.441,105.024v-22.08h4.139v22.08H60.441z"/>
		<radialGradient id="SVGID_2_" cx="79.3345" cy="93.9844" r="10.1162" gradientUnits="userSpaceOnUse">
			<stop  offset="0" style="stop-color:#626262"/>
			<stop  offset="1" style="stop-color:#474747"/>
		</radialGradient>
		<path fill="url(#SVGID_2_)" d="M77.249,86.729h-7.014v-3.785c6.382,0,11.784,0,18.198,0v3.785H81.42v18.295h-4.171V86.729z"/>
		<path d="M111.982,101.965c-2.211,2.207-5.148,3.312-8.057,3.312c-7.455,0-11.342-5.204-11.373-11.166
			c-0.063-5.899,3.791-11.418,11.373-11.418c2.908,0,5.846,1.104,8.057,3.311l-1.168,1.01c-1.896-1.893-4.393-2.808-6.889-2.808
			c-6.445,0-9.762,4.542-9.729,9.842c0.063,5.173,3.348,9.651,9.729,9.651c2.496,0,5.023-0.945,6.92-2.807L111.982,101.965z"/>
		<path d="M138.326,94.016c-0.031,5.804-3.729,11.387-11.152,11.387s-11.152-5.614-11.152-11.449c0-5.93,3.695-11.355,11.152-11.355
			S138.359,88.055,138.326,94.016z M117.697,93.984c0.031,4.983,3.189,9.842,9.477,9.842c6.32,0,9.512-4.858,9.512-9.842
			c0-5.109-3.16-9.81-9.512-9.81C120.824,84.175,117.664,88.779,117.697,93.984z"/>
		<path d="M145.021,82.944l14.879,18.263V82.944h1.676v22.08h-0.664L146,86.793v18.231h-1.707v-22.08H145.021z"/>
		<path d="M170.734,93.448h12.732v1.608h-12.732v10h-1.707V82.944h14.883v1.703h-13.176V93.448z"/>
	</g>
	<g>
		<polygon points="14.286,82.598 14.286,86.275 14.428,86.426 19.889,86.426 19.889,92.176 20.034,92.32 23.895,92.32 23.895,82.96 
			23.533,82.598 		"/>
		<path d="M23.895,105.402v-4.585c-8.727-0.626-17.038-6.69-17.963-18.22H1.09C2.055,97.18,12.756,104.773,23.895,105.402z"/>
	</g>
</g>
</svg>
